<svg width="64" height="64" viewBox="0 0 64 64" fill="none" xmlns="http://www.w3.org/2000/svg">
<g clip-path="url(#clip0_11_80)">
<path fill-rule="evenodd" clip-rule="evenodd" d="M64.0015 20.02C64.0015 19.2556 64.0015 18.4911 63.9979 17.7266C63.9944 17.0831 63.9873 16.4395 63.9695 15.7959C63.9322 14.3932 63.8486 12.9799 63.5997 11.5932C63.3472 10.1851 62.933 8.87487 62.2823 7.59484C61.6423 6.33793 60.8067 5.18945 59.8094 4.1921C58.812 3.19474 57.6618 2.35917 56.4049 1.71915C55.1266 1.06847 53.8164 0.656015 52.4101 0.401787C51.0234 0.152892 49.6083 0.069335 48.2056 0.0320007C47.562 0.0142226 46.9184 0.00711128 46.2749 0.00355564C45.5104 0 44.7459 0 43.9815 0H20.02C19.2556 0 18.4911 0 17.7266 0.00355564C17.0831 0.00711128 16.4395 0.0142226 15.7959 0.0320007C14.3932 0.0711128 12.9781 0.152892 11.5914 0.403565C10.1833 0.656015 8.87487 1.07025 7.59662 1.72093C6.3397 2.36094 5.18945 3.19652 4.1921 4.19388C3.19474 5.19123 2.35917 6.3397 1.71915 7.59662C1.06847 8.87665 0.654237 10.1869 0.401787 11.5949C0.152892 12.9816 0.0693349 14.3968 0.0320007 15.7977C0.0142226 16.4413 0.00711128 17.0848 0.00355564 17.7284C0 18.4911 0 19.2556 0 20.02V43.9797C0 44.7442 0 45.5086 0.00355564 46.2731C0.00711128 46.9166 0.0142226 47.5602 0.0320007 48.2038C0.0693349 49.6065 0.152892 51.0199 0.401787 52.4066C0.654237 53.8146 1.06847 55.1248 1.71915 56.4049C2.35917 57.6618 3.19474 58.8103 4.1921 59.8076C5.18945 60.805 6.3397 61.6406 7.59662 62.2806C8.87487 62.9312 10.1851 63.3437 11.5914 63.5979C12.9781 63.8468 14.3932 63.9304 15.7959 63.9677C16.4395 63.9855 17.0831 63.9926 17.7266 63.9962C18.4911 64.0015 19.2556 63.9997 20.02 63.9997H43.9797C44.7442 63.9997 45.5086 63.9997 46.2731 63.9962C46.9166 63.9926 47.5602 63.9855 48.2038 63.9677C49.6065 63.9304 51.0216 63.8468 52.4083 63.5979C53.8164 63.3455 55.1248 62.9312 56.4031 62.2806C57.66 61.6406 58.8103 60.805 59.8076 59.8076C60.805 58.8103 61.6405 57.6618 62.2806 56.4049C62.9312 55.1248 63.3455 53.8146 63.5979 52.4066C63.8468 51.0199 63.9304 49.6047 63.9677 48.2038C63.9855 47.5602 63.9926 46.9166 63.9962 46.2731C64.0015 45.5086 63.9997 44.7442 63.9997 43.9797V20.02H64.0015Z" fill="url(#paint0_linear_11_80)"/>
<path fill-rule="evenodd" clip-rule="evenodd" d="M45.1191 9.75072C44.9649 9.7649 43.5945 10.0078 43.4296 10.0415L24.4601 13.8691L24.453 13.8708C23.9584 13.9754 23.5701 14.1509 23.2705 14.4027C22.9088 14.7058 22.7085 15.1349 22.6323 15.6348C22.6163 15.7412 22.5897 15.9575 22.5897 16.2766C22.5897 16.2766 22.5897 35.6574 22.5897 40.0186C22.5897 40.5735 22.5454 41.1125 22.1696 41.5717C21.7937 42.0308 21.3292 42.1691 20.785 42.279C20.3719 42.3624 19.9588 42.4457 19.5457 42.529C17.9785 42.8446 16.9591 43.0591 16.0355 43.4172C15.1526 43.7594 14.4913 44.1955 13.9648 44.7486C12.9206 45.8425 12.4969 47.3263 12.6422 48.7163C12.7663 49.9023 13.3 51.0369 14.2165 51.8755C14.8353 52.4428 15.6082 52.8736 16.5195 53.0562C17.4644 53.2459 18.4714 53.1803 19.9429 52.8825C20.7265 52.7247 21.4604 52.4783 22.1589 52.0652C22.8503 51.6574 23.4425 51.1132 23.9052 50.4501C24.3697 49.7853 24.6693 49.046 24.8342 48.2606C25.0044 47.4504 25.0451 46.7183 25.0451 45.9098V25.3181C25.0451 24.2154 25.3572 23.9247 26.2471 23.7084C26.2471 23.7084 42.0149 20.5279 42.7506 20.3843C43.7771 20.1875 44.2611 20.48 44.2611 21.5561V35.6131C44.2611 36.1698 44.2558 36.7335 43.8764 37.1945C43.5005 37.6537 43.036 37.7919 42.4918 37.9019C42.0787 37.9852 41.6656 38.0685 41.2526 38.1518C39.6854 38.4674 38.666 38.6819 37.7423 39.04C36.8594 39.3822 36.1982 39.8183 35.6716 40.3714C34.6274 41.4653 34.1665 42.9492 34.3118 44.3391C34.4359 45.5251 35.0068 46.6598 35.9234 47.4983C36.5421 48.0656 37.315 48.484 38.2263 48.6684C39.1712 48.8581 40.1782 48.7907 41.6497 48.4947C42.4333 48.3369 43.1672 48.1011 43.8657 47.688C44.5572 47.2802 45.1493 46.736 45.612 46.0729C46.0765 45.4081 46.3761 44.6688 46.541 43.8835C46.7112 43.0733 46.7183 42.3411 46.7183 41.5327V11.4278C46.7218 10.3358 46.1456 9.66208 45.1191 9.75072Z" fill="white"/>
</g>
<defs>
<linearGradient id="paint0_linear_11_80" x1="32.0007" y1="63.7534" x2="32.0007" y2="1.37934" gradientUnits="userSpaceOnUse">
<stop stop-color="#FA233B"/>
<stop offset="1" stop-color="#FB5C74"/>
</linearGradient>
<clipPath id="clip0_11_80">
<rect width="64" height="64" fill="white"/>
</clipPath>
</defs>
</svg>
