<svg width="64" height="64" viewBox="0 0 64 64" fill="none" xmlns="http://www.w3.org/2000/svg">
<g clip-path="url(#clip0_11_90)">
<path d="M32 64C49.6731 64 64 49.6731 64 32C64 14.3269 49.6731 0 32 0C14.3269 0 0 14.3269 0 32C0 49.6731 14.3269 64 32 64Z" fill="#FF0000"/>
<path d="M32 16.7273C40.4 16.7273 47.2727 23.5636 47.2727 32C47.2727 40.4363 40.4363 47.2727 32 47.2727C23.5636 47.2727 16.7273 40.4363 16.7273 32C16.7273 23.5636 23.6 16.7273 32 16.7273ZM32 15.2727C22.7636 15.2727 15.2727 22.7636 15.2727 32C15.2727 41.2363 22.7636 48.7273 32 48.7273C41.2363 48.7273 48.7273 41.2363 48.7273 32C48.7273 22.7636 41.2363 15.2727 32 15.2727Z" fill="white"/>
<path d="M26.1818 40.3636L40.3636 31.6364L26.1818 23.6364V40.3636Z" fill="white"/>
</g>
<defs>
<clipPath id="clip0_11_90">
<rect width="64" height="64" fill="white"/>
</clipPath>
</defs>
</svg>
